<svg xmlns="http://www.w3.org/2000/svg" xml:space="preserve" id="Livello_1" x="0" y="0" version="1.1" viewBox="0 0 535.6 241.7"><style>.st0{fill:#a866ec}.st1{fill:#ecddfb}.st2{fill:#6731a1}.st3{fill:#f8f0ff}</style><path d="M186.6 142.2c-1.5 0-2.9-.3-4.4-.9-1.4-.6-2.7-1.6-3.9-2.8s-2-2.8-2.7-4.8c-.7-1.9-1-4.2-1-6.7 0-2.6.4-4.9 1.1-6.8.7-1.8 1.7-3.4 2.9-4.5 1.2-1.2 2.5-2 3.9-2.6 1.4-.5 2.9-.8 4.4-.8 1.4 0 2.7.3 3.9.8s2.2 1.3 3.1 2.2 1.5 2 2 3.2V99.6h3.4v.4c-.2.2-.3.4-.4.7s-.1.8-.1 1.5l.1 34.9c0 .8 0 1.5.1 2.2s.2 1.5.5 2.2l-3-.1c-.2-.5-.4-1.1-.4-1.7-.1-.7-.1-1.3-.2-2V136c-.5 1-1.1 2-2 2.9-.8.9-1.9 1.7-3.1 2.3-1.1.7-2.6 1-4.2 1m.5-2.8q2.25 0 3.9-.9c1.1-.6 2-1.5 2.7-2.6s1.2-2.5 1.6-4 .5-3.2.5-5c0-2.7-.4-5-1.2-6.8s-1.9-3.1-3.2-4-2.8-1.4-4.4-1.4c-1.3 0-2.6.2-3.7.7s-2.1 1.2-3 2.2c-.8 1-1.5 2.2-2 3.6-.5 1.5-.7 3.1-.7 5.1 0 2.9.4 5.2 1.2 7.2.8 1.9 1.9 3.4 3.3 4.3 1.6 1.2 3.2 1.6 5 1.6m38.7 2.1h-18v-2.6h7.8v-23.4h-7.4V113h10.5v26h7.2v2.5zm-8.9-35.7c-.6 0-1.2-.2-1.7-.7s-.7-1-.7-1.7.2-1.3.7-1.8 1-.7 1.7-.7 1.2.2 1.7.7.7 1.1.7 1.7-.2 1.2-.7 1.7c-.5.6-1.1.8-1.7.8m29.8 36.4c-1.6 0-3-.2-4.4-.5s-2.7-.8-4-1.5-2.4-1.5-3.5-2.5l1.8-2.8.4-.4.4.2c0 .3.1.5.2.8q.15.45.9 1.2c1 .8 2.2 1.5 3.6 2s3 .8 4.8.8c1.9 0 3.5-.2 4.7-.6s2.1-1 2.8-1.9c.6-.8 1-1.8 1-3 0-.7-.2-1.4-.5-2s-.9-1.1-1.6-1.6-1.6-.9-2.6-1.3-2.3-.8-3.7-1.2c-2.1-.5-3.9-1.2-5.4-2-1.6-.8-2.8-1.7-3.7-2.8s-1.4-2.3-1.4-3.7.4-2.7 1.2-3.8 2-1.9 3.5-2.5 3.4-.9 5.6-.9c1.3 0 2.5.1 3.6.2 1.1.2 2 .4 2.9.8s1.7.8 2.4 1.3 1.4 1.1 2.1 1.9l-1.8 2.2-.4.5-.3-.3c0-.3-.1-.6-.2-.9s-.5-.7-1-1.2c-.9-.7-2-1.3-3.2-1.6-1.2-.4-2.5-.6-4-.6-2.4 0-4.2.4-5.5 1.2s-2 1.9-2 3.4q0 1.35.9 2.4c.6.7 1.6 1.4 2.9 2s3 1.2 5 1.8c2.2.6 4.1 1.3 5.6 2 1.5.8 2.6 1.6 3.3 2.6s1.1 2.2 1.1 3.6c0 1.6-.4 3-1.2 4.3s-2 2.3-3.7 3.1c-1.7.9-3.9 1.3-6.6 1.3m32.6-.2c-1.8 0-3.3-.3-4.4-.9s-1.9-1.6-2.5-2.9c-.5-1.3-.9-3-1-5s-.1-4.4-.1-7.2l.8-20.7 3.2-.4.6-.1.1.4c-.2.2-.4.5-.5.8s-.2.8-.2 1.5l-.4 6.7.1 1-.4 11c-.1 3.4-.1 6 .2 7.9s.8 3.3 1.6 4 2 1.2 3.6 1.2c1.4 0 2.7-.3 3.9-.8s2.5-1.2 3.6-2.1l1.1 2.4c-1.4 1-2.9 1.8-4.4 2.3s-3.3.9-4.9.9m-14.5-26.4V113h20.7v2.6zm33.1 26V113h3.2l-.2 8.4-.5-.4c.3-1.3.7-2.6 1.4-3.6.7-1.1 1.4-2 2.4-2.7.9-.8 2-1.3 3.1-1.7s2.3-.6 3.4-.6c1.4 0 2.9.3 4.3.8s2.6 1.3 3.7 2.4l-1.5 2.3-.2.5-.4-.2c0-.3-.1-.6-.2-.8-.2-.3-.6-.6-1.1-1-.8-.5-1.5-.8-2.2-1s-1.4-.3-2.2-.3c-1.3 0-2.5.3-3.7.8s-2.2 1.2-3.1 2.2-1.6 2.1-2.1 3.5-.8 2.9-.8 4.7v15.5h-3.3zm37.6.4c-2.6 0-4.9-.6-6.8-1.9s-3.4-3-4.4-5.2-1.5-4.8-1.5-7.7q0-4.35 1.5-7.8c1-2.2 2.5-4 4.4-5.2 1.9-1.3 4.1-1.9 6.8-1.9 2.6 0 4.8.6 6.7 1.9s3.4 3 4.4 5.2 1.6 4.8 1.6 7.8c0 2.9-.5 5.5-1.6 7.7-1 2.2-2.5 4-4.4 5.2-1.9 1.3-4.1 1.9-6.7 1.9m0-2.6c2 0 3.7-.5 5.1-1.6s2.5-2.5 3.2-4.4c.8-1.9 1.1-4 1.1-6.3 0-2.5-.4-4.6-1.2-6.5s-1.9-3.2-3.4-4.3c-1.4-1-3.1-1.5-4.9-1.5-1.9 0-3.6.5-5 1.6-1.4 1-2.5 2.5-3.3 4.3s-1.1 3.9-1.1 6.3.4 4.5 1.1 6.4c.8 1.8 1.9 3.3 3.3 4.3 1.4 1.2 3.1 1.7 5.1 1.7m40 2.1h-20.9v-2.6h8.9v-36.8H355v-2.5h11.7v39.3h8.9v2.6zm20.3.7c-2 0-3.8-.3-5.5-1-1.6-.7-3.1-1.6-4.2-2.9-1.2-1.3-2.1-2.8-2.7-4.7-.7-1.8-1-3.9-1-6.2 0-2.4.3-4.6 1-6.5s1.6-3.4 2.7-4.7c1.2-1.3 2.5-2.2 4-2.9s3.2-1 4.9-1c1.6 0 3.2.3 4.6.8s2.6 1.4 3.7 2.5 1.9 2.5 2.5 4.2.9 3.7.9 5.9v.8c0 .2 0 .5-.1.9h-21.2q0 3.15.9 5.4c.5 1.5 1.3 2.8 2.2 3.8s2 1.8 3.3 2.3 2.7.8 4.2.8c1.2 0 2.3-.1 3.3-.4s1.9-.7 2.6-1.3 1.5-1.2 2.2-2l1.9 1.7c-.8 1-1.7 1.8-2.7 2.5s-2.2 1.2-3.4 1.6c-1.3.2-2.6.4-4.1.4m-10.3-17.4h18c0-1.6-.2-3-.6-4.3s-1-2.3-1.8-3.2-1.7-1.5-2.7-2c-1.1-.4-2.2-.7-3.5-.7s-2.6.2-3.7.7-2 1.1-2.9 2c-.8.9-1.5 2-1.9 3.2-.4 1.4-.7 2.8-.9 4.3m39 17.4c-1.6 0-3-.2-4.4-.5s-2.7-.8-4-1.5-2.4-1.5-3.5-2.5l1.8-2.8.4-.4.4.2c0 .3.1.5.2.8s.4.7.9 1.2c1 .8 2.2 1.5 3.6 2s3 .8 4.8.8c1.9 0 3.5-.2 4.7-.6s2.1-1 2.8-1.9q.9-1.2.9-3c0-.7-.2-1.4-.5-2s-.8-1.1-1.5-1.6-1.6-.9-2.6-1.3c-1.1-.4-2.3-.8-3.7-1.2-2.1-.5-3.9-1.2-5.5-2s-2.8-1.7-3.7-2.8-1.4-2.3-1.4-3.7.4-2.7 1.2-3.8 2-1.9 3.5-2.5 3.4-.9 5.6-.9c1.3 0 2.5.1 3.6.2 1 .2 2 .4 2.9.8s1.7.8 2.4 1.3 1.4 1.1 2.1 1.9l-1.8 2.2-.4.5-.3-.3c0-.3-.1-.6-.2-.9s-.5-.7-1-1.2c-.9-.7-2-1.3-3.2-1.6-1.2-.4-2.5-.6-4-.6-2.4 0-4.2.4-5.5 1.2s-2 1.9-2 3.4q0 1.35.9 2.4c.6.7 1.6 1.4 2.9 2s3 1.2 5.1 1.8c2.2.6 4.1 1.3 5.6 2 1.5.8 2.6 1.6 3.3 2.6s1.1 2.2 1.1 3.6c0 1.6-.4 3-1.2 4.3s-2 2.3-3.7 3.1c-1.7.9-3.9 1.3-6.6 1.3m29.6 0c-1.6 0-3-.2-4.4-.5s-2.7-.8-4-1.5-2.4-1.5-3.5-2.5l1.8-2.8.4-.4.4.2c0 .3.1.5.2.8s.4.7.9 1.2c1 .8 2.2 1.5 3.6 2s3 .8 4.8.8c1.9 0 3.4-.2 4.7-.6 1.2-.4 2.1-1 2.8-1.9q.9-1.2.9-3c0-.7-.2-1.4-.5-2s-.8-1.1-1.5-1.6-1.6-.9-2.6-1.3c-1.1-.4-2.3-.8-3.7-1.2-2.1-.5-3.9-1.2-5.5-2s-2.8-1.7-3.7-2.8-1.4-2.3-1.4-3.7.4-2.7 1.2-3.8 2-1.9 3.5-2.5 3.4-.9 5.6-.9c1.3 0 2.5.1 3.6.2 1 .2 2 .4 2.9.8s1.7.8 2.4 1.3 1.4 1.1 2.1 1.9l-1.8 2.2-.4.5-.3-.3c0-.3-.1-.6-.2-.9s-.5-.7-1-1.2c-.9-.7-2-1.3-3.2-1.6-1.2-.4-2.5-.6-4-.6-2.4 0-4.2.4-5.5 1.2s-2 1.9-2 3.4q0 1.35.9 2.4c.6.7 1.6 1.4 2.9 2s3 1.2 5 1.8c2.2.6 4.1 1.3 5.6 2 1.5.8 2.6 1.6 3.3 2.6s1.1 2.2 1.1 3.6c0 1.6-.4 3-1.2 4.3s-2 2.3-3.7 3.1c-1.6.9-3.8 1.3-6.5 1.3" class="st0"/><ellipse cx="112.8" cy="166.3" class="st1" rx="32.1" ry="5.5"/><path d="M144.5 124c-.9 0-1.7-.6-1.9-1.5-.3-1.1.3-2.2 1.4-2.5l15.4-4.4c1.1-.3 2.2.3 2.5 1.4s-.3 2.2-1.4 2.5l-15.4 4.4c-.2.1-.4.1-.6.1M133.6 163.9c-.7 0-1.4-.4-1.8-1.1l-10.1-20.1c-.5-1-.1-2.2.9-2.7s2.2-.1 2.7.9l9.3 18.4 3.7-1.5c1-.4 2.2.1 2.6 1.1s-.1 2.2-1.1 2.6l-5.4 2.2c-.3.2-.5.2-.8.2M97.3 164c-1.1 0-2-.9-2-2v-5.8c0-.5.2-1.1.6-1.4q.6-.6 1.5-.6c4.4.2 7.8-.9 10.2-3 3.3-3 3.5-7.5 3.5-7.5 0-1.1.9-2 2.1-1.9 1.1 0 2 .9 1.9 2 0 .2-.2 6.1-4.7 10.3-2.8 2.6-6.5 4-11 4.2v3.8c-.1 1-1 1.9-2.1 1.9" class="st2"/><path d="m111.854 102.148 36.095-2.767 3.203 41.778-36.095 2.767z" class="st1"/><path d="M115.1 144.9c-.5 0-1-.4-1-.9l-3.2-41.8c0-.3.1-.5.2-.7.2-.2.4-.3.7-.3l36.1-2.8c.3 0 .5.1.7.2.2.2.3.4.3.7l3.2 41.8c0 .6-.4 1-.9 1.1zm-2.2-41.8 3 39.8 34.1-2.6-3-39.8z" class="st2"/><path d="m79.248 104.614 32.605-2.5 3.203 41.779-32.605 2.5z" class="st3"/><path d="M82.5 147.4c-.5 0-1-.4-1-.9l-3.2-41.8c0-.3.1-.5.2-.7.2-.2.4-.3.7-.3l32.6-2.5c.6 0 1 .4 1.1.9l3.2 41.8c0 .3-.1.5-.2.7-.2.2-.4.3-.7.3zm-2.2-41.9 3 39.8L114 143l-3-39.8z" class="st2"/><path d="m111.9 102.1-32.6 2.5-7.9-11.7 32.6-2.5z" class="st1"/><path d="M79.3 105.6c-.3 0-.6-.2-.8-.4l-7.9-11.7c-.2-.3-.2-.7-.1-1s.5-.5.8-.6l32.6-2.5c.4 0 .7.1.9.4l7.9 11.7c.2.3.2.7.1 1s-.5.5-.8.6zc.1 0 0 0 0 0m-6.1-11.8 6.6 9.8 30.3-2.3-6.6-9.8z" class="st2"/><path d="m115.3 101.8 32.6-2.5 6-12.7-32.6 2.5z" class="st3"/><path d="M115.3 102.8c-.3 0-.6-.2-.8-.4-.2-.3-.2-.7-.1-1l6-12.7c.2-.3.5-.5.8-.6l32.6-2.5c.4 0 .7.1.9.4s.2.7.1 1l-6 12.7c-.2.3-.5.5-.8.6zc.1 0 0 0 0 0m6.7-12.7-5 10.6 30.3-2.3 5-10.6zM89 125.1c-.2 0-.3 0-.5-.1L73 121.3c-1.1-.3-1.7-1.3-1.5-2.4.3-1.1 1.3-1.7 2.4-1.5l15.5 3.7c1.1.3 1.7 1.3 1.5 2.4-.2 1-1 1.6-1.9 1.6M121.6 119.1c-.5 0-1-.4-1-.9-.1-1.9.4-3.7 1.5-4.9.7-.8 1.7-1.3 2.7-1.4s2 .2 2.9 1c1.2 1 2 2.7 2.2 4.5 0 .6-.4 1-.9 1.1-.5 0-1-.4-1.1-.9-.1-1.3-.6-2.5-1.4-3.2-.3-.3-.8-.6-1.5-.5-.6 0-1.1.4-1.3.7-.7.8-1.1 2.1-1 3.4-.1.6-.5 1.1-1.1 1.1M135.9 117.9c-.5 0-1-.4-1-.9-.1-1.9.4-3.7 1.5-4.9.7-.8 1.7-1.3 2.7-1.4s2 .2 2.9 1c1.2 1 2 2.7 2.2 4.5 0 .6-.4 1-.9 1.1-.5 0-1-.4-1.1-.9-.1-1.3-.6-2.5-1.4-3.2-.3-.3-.8-.6-1.5-.5-.6 0-1.1.4-1.3.7-.7.8-1.1 2.1-1 3.4-.1.6-.5 1.1-1.1 1.1" class="st2"/><path d="m138.2 122.8-10.9 1s-.3 6.5 6.5 6c5.3-.4 4.4-7 4.4-7" style="fill:#d8b9f7"/><path d="M133.1 130.8c-2 0-3.6-.6-4.8-1.7-2.1-2.1-2-5.2-2-5.3 0-.5.4-.9.9-1l10.9-1c.5-.1 1 .3 1.1.9 0 .2.5 3.8-1.4 6.2-.9 1.2-2.2 1.8-3.9 1.9zm-4.7-6.1c.1.8.4 2.1 1.4 3 .9.9 2.3 1.3 4 1.1 1.1-.1 1.9-.5 2.5-1.2.9-1.1 1-2.7 1-3.7zM109.3 135.8l-3.9-4.7c-.2-.3-.6-.2-.8.1l-3 5.3c-.2.3.1.8.5.7l1.3-.1.3 3.4c0 .3.3.5.5.4l3.3-.3c.3 0 .5-.3.4-.5l-.3-3.4 1.3-.1c.5 0 .7-.5.4-.8" class="st2"/><path d="m119.9 80.4-2.6-.5c-1.1-.2-2-1.1-2.2-2.2l-.5-2.6c-.1-.5-.5-.9-1-.9s-.9.4-1 .9l-.5 2.6c-.2 1.1-1.1 2-2.2 2.2l-2.6.5c-.5.1-.9.5-.9 1s.4.9.9 1l2.6.5c1.1.2 2 1.1 2.2 2.2l.5 2.6c.1.5.5.9 1 .9s.9-.4 1-.9l.5-2.6c.2-1.1 1.1-2 2.2-2.2l2.6-.5c.5-.1.9-.5.9-1-.1-.5-.4-1-.9-1M100.6 74.6l-2-.4c-.8-.1-1.5-.8-1.6-1.6l-.4-2c-.1-.4-.4-.6-.8-.6s-.7.3-.8.6l-.4 2c-.1.8-.8 1.5-1.6 1.6l-2 .4c-.4.1-.6.4-.6.8s.3.7.6.8l2 .4c.8.1 1.5.8 1.6 1.6l.4 2c.1.4.4.6.8.6s.7-.3.8-.6l.4-2c.1-.8.8-1.5 1.6-1.6l2-.4c.4-.1.6-.4.6-.8s-.3-.8-.6-.8M96 97.4l-8.1.7-4.2-6 8.1-.6z" class="st0"/><path d="M87.9 99.1c-.3 0-.6-.2-.8-.4l-4.2-6c-.2-.3-.2-.7-.1-1 .2-.3.5-.5.8-.6l8.1-.6c.3 0 .7.1.9.4l4.2 5.9c.2.3.2.7.1 1s-.5.5-.8.6zc.1 0 0 0 0 0M85.5 93l2.9 4.1 5.8-.5-2.9-4z" class="st2"/></svg>